<!-- dollar Sign -->

<svg width="12" height="19" viewBox="0 0 12 19" fill="none" xmlns="http://www.w3.org/2000/svg">
<path d="M5.324 9.872L4.444 9.608C2.156 8.926 0.946 7.694 0.946 5.846C0.946 3.514 2.794 2.018 5.324 1.908V0.257999H6.622V1.996C8.932 2.37 10.538 3.998 10.802 6.374H9.24C8.998 4.79 8.096 3.734 6.622 3.382V8.64L7.48 8.904C9.856 9.586 11.044 10.752 11.044 12.666C11.044 14.976 9.328 16.56 6.622 16.67V18.408H5.324V16.604C2.882 16.23 1.144 14.58 0.88 12.204H2.464C2.728 13.81 3.74 14.888 5.324 15.218V9.872ZM4.95 8.2L5.324 8.31V3.272C3.652 3.36 2.508 4.306 2.508 5.714C2.508 6.946 3.3 7.694 4.95 8.2ZM6.886 10.268L6.622 10.202V15.306C8.448 15.196 9.482 14.25 9.482 12.842C9.482 11.588 8.712 10.796 6.886 10.268Z" fill="#4F4F4F"/>
</svg>
