<svg xmlns="http://www.w3.org/2000/svg" width="19" height="19" viewBox="0 0 19 19" fill="none">
<rect x="0.5" y="0.5" width="18" height="18" rx="9" fill="#EFEFEF" stroke="white"/>
<path d="M9.18236 3.30469C8.51828 3.30469 8 3.66103 8 4.29274C8 6.22015 8.22672 8.9898 8.22672 10.9173C8.22677 11.4194 8.66413 11.6299 9.18241 11.6299C9.57112 11.6299 10.1218 11.4194 10.1218 10.9173C10.1218 8.98986 10.3485 6.2202 10.3485 4.29274C10.3485 3.66108 9.81407 3.30469 9.18236 3.30469Z" fill="#BDBDBD"/>
<path d="M9.24719 12.7471C8.53456 12.7471 8 13.3139 8 13.9943C8 14.6583 8.53451 15.2415 9.24719 15.2415C9.91127 15.2415 10.4782 14.6583 10.4782 13.9943C10.4782 13.3139 9.91122 12.7471 9.24719 12.7471Z" fill="#BDBDBD"/>
</svg>