<svg width="21" height="21" viewBox="0 0 21 21" fill="none" xmlns="http://www.w3.org/2000/svg">
<path d="M15.9998 21.0004C15.6804 20.9194 15.354 20.8597 15.0425 20.7546C13.093 20.0968 11.8376 18.1732 12.0075 16.1224C12.1816 14.026 13.8402 12.2932 15.9155 12.0403C18.4102 11.736 20.6128 13.4259 20.9606 15.9095C20.9652 15.9412 20.9864 15.9705 20.9998 16.0009V17.0009C20.9864 17.0314 20.9652 17.0606 20.9606 17.0923C20.6967 18.9729 19.3642 20.442 17.5194 20.8827C17.3465 20.924 17.1729 20.9612 16.9992 21.0004H15.999H15.9998ZM16.497 20.0008C18.4153 20.0025 19.9987 18.4216 20.0004 16.503C20.0021 14.584 18.4219 13.0018 16.5024 13.0002C14.5833 12.9985 13.0011 14.5782 12.999 16.4972C12.9974 18.4153 14.5783 19.9987 16.4966 20.0004L16.497 20.0008Z" fill="#061229"/>
<path d="M0.998539 6.34877C0.998539 6.43934 0.998539 6.51488 0.998539 6.59042C0.998539 10.2631 0.998539 13.9358 0.998539 17.6085C0.998539 18.3268 1.33878 18.6682 2.05432 18.6682C5.05383 18.6682 8.05375 18.6682 11.0533 18.6682C11.4127 18.6682 11.6302 18.8652 11.6239 19.1803C11.6189 19.4361 11.4269 19.6431 11.1722 19.6644C11.1238 19.6686 11.075 19.6665 11.0265 19.6665C7.99238 19.6665 4.95781 19.6673 1.92365 19.6665C0.957628 19.6665 0.212029 19.05 0.0270909 18.0997C0.00496511 17.985 0.00079043 17.8656 0.00079043 17.7483C-4.45059e-05 12.9158 -0.000461974 8.08371 0.00079043 3.25161C0.00079043 2.15439 0.824038 1.3393 1.92699 1.33638C2.16286 1.33596 2.39831 1.33638 2.66674 1.33638C2.66674 1.07553 2.66591 0.8222 2.66674 0.56845C2.66799 0.223299 2.86295 0.00335502 3.16562 0.00335502C3.46912 0.00335502 3.66324 0.222047 3.66491 0.567615C3.66616 0.815939 3.66491 1.06426 3.66491 1.32427H9.33371C9.33371 1.04966 9.32912 0.768361 9.33496 0.487483C9.33997 0.24375 9.5174 0.0434208 9.74658 0.00669384C9.99164 -0.0325372 10.2258 0.10352 10.3035 0.340158C10.3264 0.410691 10.3298 0.48957 10.3306 0.564693C10.334 0.813435 10.3319 1.06218 10.3319 1.32302H16.0003C16.0003 1.08972 16.0003 0.862683 16.0003 0.635643C16.0003 0.228725 16.1743 0.00585914 16.4941 0.00293767C16.8231 1.62087e-05 16.9984 0.2233 16.9988 0.645242C16.9988 0.866439 16.9988 1.08764 16.9988 1.33554C17.2522 1.33554 17.4927 1.33513 17.7327 1.33554C18.8482 1.33805 19.6648 2.15105 19.6652 3.26538C19.6665 5.86882 19.6648 8.47226 19.6669 11.0757C19.6669 11.3069 19.5846 11.483 19.373 11.5807C19.1872 11.6667 18.9847 11.6575 18.8537 11.5043C18.7551 11.3891 18.6762 11.2151 18.6746 11.0661C18.6616 9.57365 18.6666 8.08079 18.6666 6.58834C18.6666 6.51279 18.6666 6.43725 18.6666 6.34752H0.998539V6.34877ZM9.33413 2.34971H3.66533C3.66533 2.61347 3.66658 2.86263 3.66533 3.11179C3.66324 3.45319 3.46244 3.67188 3.15727 3.66771C2.86337 3.66353 2.66925 3.44567 2.66716 3.11471C2.66591 2.86013 2.66716 2.60596 2.66716 2.33552C2.39455 2.33552 2.14616 2.33009 1.89777 2.33677C1.38345 2.35013 1.01106 2.72366 1.00063 3.23908C0.993947 3.57213 0.999374 3.9056 0.998957 4.23864C0.998957 4.59757 0.998957 4.95691 0.998957 5.32543H18.6616C18.6616 4.58755 18.6796 3.85969 18.6541 3.13391C18.6412 2.77457 18.4241 2.48201 18.0713 2.40104C17.729 2.32216 17.365 2.33927 17.0001 2.31382C17.0001 2.61807 17.0013 2.86764 17.0001 3.11722C16.998 3.44734 16.803 3.66478 16.5083 3.66854C16.204 3.6723 16.004 3.45235 16.0019 3.11054C16.0007 2.85637 16.0019 2.60221 16.0019 2.35138H10.3335C10.3335 2.49829 10.3335 2.62975 10.3335 2.7608C10.3335 2.89268 10.3356 3.02457 10.3327 3.15645C10.326 3.45277 10.1236 3.66395 9.84344 3.66812C9.55413 3.67271 9.33997 3.45903 9.33538 3.15436C9.33162 2.89143 9.33454 2.62808 9.33454 2.35013L9.33413 2.34971Z" fill="#061229"/>
<path d="M2.66665 9.81375C2.66665 9.39055 2.66498 8.96736 2.66707 8.54458C2.66874 8.2011 2.86536 8.00411 3.20936 8.00369C4.06976 8.00202 4.92974 8.00202 5.79014 8.00369C6.13372 8.00453 6.33035 8.20152 6.33118 8.54542C6.33285 9.40558 6.33285 10.2657 6.33118 11.1259C6.33035 11.4694 6.13289 11.6664 5.78931 11.6672C4.92891 11.6689 4.06892 11.6689 3.20852 11.6672C2.86703 11.6664 2.66874 11.4669 2.66707 11.1251C2.66498 10.6881 2.66665 10.2511 2.66665 9.81417V9.81375ZM3.67442 10.6543H5.31674V9.01243H3.67442V10.6543Z" fill="#061229"/>
<path d="M11.6661 9.84647C11.6661 10.2763 11.6682 10.7066 11.6653 11.1365C11.6632 11.465 11.4624 11.6657 11.133 11.6665C10.2659 11.6686 9.39883 11.6686 8.53133 11.6665C8.2032 11.6657 8.00198 11.4633 8.00157 11.134C7.99948 10.2667 7.99948 9.39991 8.00157 8.53265C8.0024 8.20461 8.20445 8.00386 8.53425 8.00303C9.40134 8.00094 10.2684 8.00094 11.1359 8.00303C11.4649 8.00386 11.6636 8.20461 11.6657 8.53515C11.6682 8.97212 11.6665 9.40909 11.6665 9.84606L11.6661 9.84647ZM9.01226 9.00509V10.6545H10.6512V9.00509H9.01226Z" fill="#061229"/>
<path d="M2.66665 15.1458C2.66665 14.7226 2.66498 14.2994 2.66707 13.8766C2.66874 13.5331 2.86536 13.3366 3.20936 13.3357C4.06976 13.3341 4.92974 13.3341 5.79014 13.3357C6.13372 13.3366 6.33035 13.5336 6.33118 13.8774C6.33285 14.7376 6.33285 15.5978 6.33118 16.4579C6.33035 16.8014 6.13289 16.9984 5.78931 16.9992C4.92891 17.0009 4.06892 17.0009 3.20852 16.9992C2.86745 16.9984 2.66874 16.7985 2.66707 16.4571C2.66498 16.0201 2.66665 15.5832 2.66665 15.1462V15.1458ZM5.31841 15.9922V14.3503H3.6765V15.9922H5.31841Z" fill="#061229"/>
<path d="M16.9995 16.002C17.2746 16.002 17.5293 16.0007 17.7844 16.002C18.1129 16.0041 18.3304 16.2011 18.3325 16.4961C18.3346 16.7929 18.1179 16.9978 17.7931 16.9995C17.3698 17.0015 16.9461 17.0024 16.5228 16.9995C16.2068 16.997 16.0034 16.7941 16.0022 16.4782C15.9993 15.8259 15.9993 15.1731 16.0022 14.5208C16.0034 14.2145 16.2164 14.0004 16.5048 14.0025C16.7933 14.0045 16.997 14.2186 16.9987 14.5296C17.0016 15.0137 16.9995 15.4974 16.9995 16.002Z" fill="#061229"/>
</svg>
