<svg width="1422" height="279" viewBox="0 0 1422 279" fill="none" xmlns="http://www.w3.org/2000/svg">
<rect width="1422" height="279" rx="10" fill="#E9EBEC"/>
<path fill-rule="evenodd" clip-rule="evenodd" d="M786.248 198.851C794.77 194.908 798.405 184.935 794.353 176.643L751.327 88.5097C747.274 80.2181 737.024 76.6812 728.502 80.624C719.981 84.5668 716.345 94.5398 720.398 102.831L763.424 190.965C767.476 199.256 777.786 202.793 786.248 198.851Z" fill="#B5AEAE" fill-opacity="0.2"/>
<path fill-rule="evenodd" clip-rule="evenodd" d="M735.832 198.85C744.354 194.907 747.989 184.934 743.937 176.643L700.911 88.5091C697.991 82.479 691.793 79 685.357 79C678.921 79 672.723 82.479 669.803 88.5091L626.657 176.701C622.605 184.992 626.24 194.965 634.762 198.908C643.284 202.851 653.534 199.314 657.586 191.022L685.297 134.315L713.008 191.022C717.06 199.256 727.31 202.793 735.832 198.85Z" fill="#B5AEAE" fill-opacity="0.2"/>
</svg>
