<svg xmlns="http://www.w3.org/2000/svg" width="170" height="168" viewBox="0 0 170 168" fill="none">
<rect x="0.5" y="0.5" width="169" height="166.42" rx="14.5" fill="#FAFAFA" stroke="#C1DFDF"/>
<path fill-rule="evenodd" clip-rule="evenodd" d="M127.558 117.052C132.397 114.813 134.461 109.15 132.16 104.442L107.729 54.3996C105.428 49.6917 99.6083 47.6834 94.7696 49.9221C89.9308 52.1609 87.8667 57.8236 90.1677 62.5316L114.598 112.574C116.899 117.282 122.753 119.29 127.558 117.052Z" fill="#B5AEAE" fill-opacity="0.2"/>
<path fill-rule="evenodd" clip-rule="evenodd" d="M98.9311 117.051C103.77 114.813 105.834 109.15 103.533 104.442L79.1024 54.3993C77.4444 50.9754 73.9253 49 70.2709 49C66.6164 49 63.0974 50.9754 61.4393 54.3993L36.9411 104.475C34.6402 109.183 36.7043 114.846 41.543 117.084C46.3817 119.323 52.2017 117.315 54.5027 112.607L70.237 80.4083L85.9714 112.607C88.2723 117.282 94.0923 119.29 98.9311 117.051Z" fill="#B5AEAE" fill-opacity="0.2"/>
</svg>