<svg width="49" height="49" viewBox="0 0 49 49" fill="none" xmlns="http://www.w3.org/2000/svg">
<rect width="49" height="49" rx="24.5" fill="#4CAF50"/>
<path d="M34.9995 14.5351C34.8966 14.6829 34.8142 14.8537 34.6878 14.9748C32.3149 17.2381 30.2883 19.8167 28.3674 22.4891C25.8101 26.0474 23.4895 29.769 21.3197 33.5938C21.2303 33.7514 21.0693 33.8657 20.9415 34H20.708C20.5886 33.8682 20.444 33.7529 20.3546 33.6016C18.7315 30.8601 16.9192 28.2528 15.1191 25.6373C14.7981 25.1708 14.47 24.7092 14.147 24.2432C13.9355 23.9382 13.95 23.7373 14.2051 23.4737C14.6188 23.0456 15.0354 22.621 15.4519 22.1958C15.7547 21.8869 15.912 21.8743 16.2668 22.1316C17.7079 23.1765 19.1485 24.2223 20.5891 25.2676C20.6336 25.2997 20.679 25.3304 20.7393 25.3722C21.0534 24.967 21.3618 24.5633 21.6768 24.1644C24.3006 20.8392 27.173 17.7757 30.482 15.1757C30.9346 14.8201 31.4036 14.4864 31.8796 14.1659C32.02 14.0715 32.2086 14.017 32.3771 14.0126C33.0305 13.9951 33.6848 14.0175 34.3377 14.0005C34.6686 13.9917 34.8947 14.1021 35 14.4373V14.5346L34.9995 14.5351Z" fill="white"/>
</svg>
