<svg width="18" height="12" viewBox="0 0 18 12" fill="none" xmlns="http://www.w3.org/2000/svg">
<path d="M5.53349 11.7072C5.94171 12.0976 6.60369 12.0976 7.01198 11.7072C7.42026 11.3167 7.42026 10.6835 7.01198 10.2929L3.56936 7.00001L16.9545 7.00001C17.5319 7.00001 18 6.55228 18 6.00001C18 5.44774 17.5319 5.00001 16.9545 5.00001L3.56936 5.00001L7.01191 1.70707C7.42019 1.3166 7.42019 0.683402 7.01191 0.292868C6.80783 0.0976677 6.54027 1.00184e-06 6.2727 1.02523e-06C6.00513 1.04862e-06 5.73757 0.0976688 5.53349 0.292936L0.306215 5.29294C-0.10207 5.68341 -0.10207 6.31661 0.306215 6.70714L5.53349 11.7072Z" fill="#061229"/>
</svg>
