<svg width="18" height="12" viewBox="0 0 18 12" fill="none" xmlns="http://www.w3.org/2000/svg">
<path d="M12.4665 0.29285C12.0583 -0.0976168 11.3963 -0.0976168 10.988 0.29285C10.5797 0.683318 10.5797 1.31652 10.988 1.70705L14.4306 4.99999L1.04546 4.99999C0.468085 4.99999 0 5.44772 0 5.99999C0 6.55226 0.468085 6.99999 1.04546 6.99999L14.4306 6.99999L10.9881 10.2929C10.5798 10.6834 10.5798 11.3166 10.9881 11.7071C11.1922 11.9023 11.4597 12 11.7273 12C11.9949 12 12.2624 11.9023 12.4665 11.7071L17.6938 6.70706C18.1021 6.31659 18.1021 5.68339 17.6938 5.29286L12.4665 0.29285Z" fill="#061229"/>
</svg>
