<svg width="162" height="22" viewBox="0 0 162 22" fill="none" xmlns="http://www.w3.org/2000/svg">
<g filter="url(#filter0_d_2382_791)">
<path d="M157 1.34766L4 1.34766C2.34315 1.34766 1 2.6908 1 4.34766L1 16.8401C1 18.4969 2.34314 19.8401 4 19.8401L157 19.8401C158.657 19.8401 160 18.4969 160 16.8401V4.34766C160 2.6908 158.657 1.34766 157 1.34766Z" fill="#386BB4"/>
<path d="M157 1.34766L4 1.34766C2.34315 1.34766 1 2.6908 1 4.34766L1 16.8401C1 18.4969 2.34314 19.8401 4 19.8401L157 19.8401C158.657 19.8401 160 18.4969 160 16.8401V4.34766C160 2.6908 158.657 1.34766 157 1.34766Z" stroke="#010101" stroke-miterlimit="10"/>
</g>
<path d="M69.8576 1L16.873 1L16.873 19.8166L69.8576 19.8166V1Z" fill="#231F20"/>
<defs>
<filter id="filter0_d_2382_791" x="0.5" y="0.847656" width="160.83" height="20.3222" filterUnits="userSpaceOnUse" color-interpolation-filters="sRGB">
<feFlood flood-opacity="0" result="BackgroundImageFix"/>
<feColorMatrix in="SourceAlpha" type="matrix" values="0 0 0 0 0 0 0 0 0 0 0 0 0 0 0 0 0 0 127 0" result="hardAlpha"/>
<feOffset dx="0.83" dy="0.83"/>
<feColorMatrix type="matrix" values="0 0 0 0 0.00392157 0 0 0 0 0.00392157 0 0 0 0 0.00392157 0 0 0 0.2 0"/>
<feBlend mode="normal" in2="BackgroundImageFix" result="effect1_dropShadow_2382_791"/>
<feBlend mode="normal" in="SourceGraphic" in2="effect1_dropShadow_2382_791" result="shape"/>
</filter>
</defs>
</svg>
