<svg xmlns="http://www.w3.org/2000/svg" width="6" height="23" viewBox="0 0 6 23" fill="none">
<path d="M-1.31134e-07 20C-5.90104e-08 21.65 1.35 23 3 23C4.65 23 6 21.65 6 20C6 18.35 4.65 17 3 17C1.35 17 -2.03258e-07 18.35 -1.31134e-07 20ZM4.5 20C4.5 20.825 3.825 21.5 3 21.5C2.175 21.5 1.5 20.825 1.5 20C1.5 19.175 2.175 18.5 3 18.5C3.825 18.5 4.5 19.175 4.5 20Z" fill="#006197"/>
<path d="M-1.31134e-07 3.5C-1.13103e-07 3.9125 0.3375 4.25 0.75 4.25C1.1625 4.25 1.5 3.9125 1.5 3.5C1.5 2.675 2.175 2 3 2C3.825 2 4.5 2.675 4.5 3.5C4.5 4.325 3.825 5 3 5C2.5875 5 2.25 5.3375 2.25 5.75C2.25 6.1625 2.5875 6.5 3 6.5C4.65 6.5 6 5.15 6 3.5C6 1.85 4.65 0.499997 3 0.499997C1.35 0.499998 -2.03258e-07 1.85 -1.31134e-07 3.5Z" fill="#006197"/>
<path d="M-1.31134e-07 11.75C-5.90104e-08 13.4 1.35 14.75 3 14.75C4.65 14.75 6 13.4 6 11.75C6 10.1 4.65 8.75 3 8.75C1.35 8.75 -2.03258e-07 10.1 -1.31134e-07 11.75ZM4.5 11.75C4.5 12.575 3.825 13.25 3 13.25C2.175 13.25 1.5 12.575 1.5 11.75C1.5 10.925 2.175 10.25 3 10.25C3.825 10.25 4.5 10.925 4.5 11.75Z" fill="#006197"/>
</svg>