<svg xmlns="http://www.w3.org/2000/svg" width="19" height="19" viewBox="0 0 19 19" fill="none">
<path d="M17.6152 4.0325H12.5858L11.5703 2.27682C11.4709 2.10517 11.2912 2 11.097 2H7.9029C7.70877 2 7.52897 2.10517 7.42968 2.27682L6.4141 4.0325H4.76374V3.64555C4.76374 3.33259 4.51717 3.07886 4.21304 3.07886H2.1754C1.87121 3.07886 1.6247 3.33259 1.6247 3.64555V4.0325H1.38481C0.619943 4.0325 0 4.67052 0 5.45747V15.775C0 16.562 0.619943 17.2 1.38475 17.2H17.6152C18.38 17.2 19 16.562 19 15.775V5.45747C19.0001 4.67052 18.38 4.0325 17.6152 4.0325ZM9.49997 14.6724C7.32302 14.6724 5.55829 12.8564 5.55829 10.6162C5.55829 8.37605 7.32302 6.55999 9.49997 6.55999C11.6769 6.55999 13.4417 8.37605 13.4417 10.6162C13.4417 12.8564 11.6769 14.6724 9.49997 14.6724ZM16.7512 6.97036H15.0256C14.7215 6.97036 14.4749 6.71663 14.4749 6.40361C14.4749 6.09058 14.7215 5.83685 15.0256 5.83685H16.7512C17.0555 5.83685 17.302 6.09058 17.302 6.40361C17.302 6.71663 17.0554 6.97036 16.7512 6.97036Z" fill="#939393"/>
<path d="M7.55287 12.4344C8.62824 13.5098 10.3718 13.5098 11.4471 12.4344C12.5225 11.359 12.5225 9.61552 11.4471 8.54015C10.3718 7.46478 8.62824 7.46478 7.55287 8.54015C6.4775 9.61552 6.4775 11.359 7.55287 12.4344Z" fill="#939393"/>
</svg>