<svg width="23" height="23" viewBox="0 0 23 23" fill="none" xmlns="http://www.w3.org/2000/svg">
<path d="M22 11.5C22 17.2749 17.2749 22 11.5 22C5.72509 22 1 17.2749 1 11.5C1 5.72509 5.72509 0.999999 11.5 0.999999C17.2749 0.999999 22 5.72509 22 11.5Z" stroke="#4F4F4F" stroke-width="1.4" stroke-miterlimit="10" stroke-linecap="round" stroke-linejoin="round"/>
<path d="M5.4922 16.5836C5.74742 16.3284 6.16119 16.3284 6.41642 16.5836C6.67164 16.8388 6.67164 17.2526 6.41642 17.5078C6.16119 17.763 5.74742 17.763 5.4922 17.5078C5.23698 17.2526 5.23698 16.8388 5.4922 16.5836Z" fill="#4F4F4F"/>
<path d="M16.584 5.49179C16.8392 5.23656 17.253 5.23656 17.5082 5.49179C17.7634 5.74701 17.7634 6.16078 17.5082 6.416C17.253 6.67123 16.8392 6.67123 16.584 6.416C16.3288 6.16078 16.3288 5.74701 16.584 5.49179Z" fill="#4F4F4F"/>
<path d="M6.41642 5.49227C6.67164 5.7475 6.67164 6.16127 6.41642 6.41649C6.16124 6.67172 5.74742 6.67172 5.4922 6.41649C5.23698 6.16127 5.23698 5.7475 5.4922 5.49227C5.74742 5.23705 6.16124 5.23705 6.41642 5.49227Z" fill="#4F4F4F"/>
<path d="M17.5082 16.5831C17.7634 16.8383 17.7634 17.2521 17.5082 17.5073C17.253 17.7625 16.8392 17.7625 16.584 17.5073C16.3288 17.2521 16.3288 16.8383 16.584 16.5831C16.8392 16.3279 17.253 16.3279 17.5082 16.5831Z" fill="#4F4F4F"/>
<path d="M11.5 3.65779V4.96484" stroke="#4F4F4F" stroke-width="1.4" stroke-miterlimit="10" stroke-linecap="round" stroke-linejoin="round"/>
<path d="M11.5 18.0352V19.3423" stroke="#4F4F4F" stroke-width="1.4" stroke-miterlimit="10" stroke-linecap="round" stroke-linejoin="round"/>
<path d="M3.65625 11.5H4.9633" stroke="#4F4F4F" stroke-width="1.4" stroke-miterlimit="10" stroke-linecap="round" stroke-linejoin="round"/>
<path d="M18.0352 11.5H19.3422" stroke="#4F4F4F" stroke-width="1.4" stroke-miterlimit="10" stroke-linecap="round" stroke-linejoin="round"/>
<path d="M11.5 7.57906V11.5002L15.4212 15.4214" stroke="#4F4F4F" stroke-width="1.4" stroke-miterlimit="10" stroke-linecap="round" stroke-linejoin="round"/>
</svg>
