
<svg width="13" height="12" viewBox="0 0 13 12" fill="none" xmlns="http://www.w3.org/2000/svg">
<path d="M13 6C13 7.5439 11.7241 8.8 10.1562 8.8H8.125C7.90045 8.8 7.71875 8.6209 7.71875 8.4C7.71875 8.1791 7.90045 8 8.125 8H10.1562C11.2762 8 12.1875 7.1027 12.1875 6C12.1875 4.8973 11.2762 4 10.1562 4H9.75C9.52544 4 9.34375 3.8209 9.34375 3.6C9.34375 2.0561 8.06782 0.8 6.5 0.8C4.93218 0.8 3.65625 2.0561 3.65625 3.6C3.65625 3.8209 3.47455 4 3.25 4H2.84375C1.72382 4 0.8125 4.8973 0.8125 6C0.8125 7.1027 1.72382 8 2.84375 8H4.875C5.09955 8 5.28125 8.1791 5.28125 8.4C5.28125 8.6209 5.09955 8.8 4.875 8.8H2.84375C1.27593 8.8 0 7.5439 0 6C0 4.4561 1.27593 3.2 2.84375 3.2H2.8664C3.06912 1.4025 4.62109 0 6.5 0C8.37891 0 9.93088 1.4025 10.1336 3.2H10.1562C11.7242 3.2 13 4.4561 13 6ZM7.83778 9.7172L6.90625 10.6344V5.6C6.90625 5.3791 6.72455 5.2 6.5 5.2C6.27545 5.2 6.09375 5.3791 6.09375 5.6V10.6344L5.16222 9.7172C5.00348 9.5609 4.74642 9.5609 4.58778 9.7172C4.42914 9.8735 4.42904 10.1266 4.58778 10.2828L6.21278 11.8828C6.2921 11.9609 6.3961 12 6.5 12C6.6039 12 6.7079 11.9609 6.78722 11.8828L8.41222 10.2828C8.57096 10.1265 8.57096 9.8734 8.41222 9.7172C8.25348 9.561 7.99642 9.5609 7.83778 9.7172Z" fill="#061229"/>
</svg>
