<svg width="16" height="16" viewBox="0 0 16 16" fill="none" xmlns="http://www.w3.org/2000/svg">
<path d="M12.9499 3.05028C11.6372 1.73751 9.85665 1 8.0001 1C6.14356 1 4.36306 1.73751 3.05028 3.05028C1.73751 4.36306 1 6.14356 1 8.0001C1 9.85665 1.73751 11.6372 3.05028 12.9499C3.69883 13.6019 4.47024 14.1188 5.31987 14.4707C6.1695 14.8226 7.08049 15.0025 8.0001 15C8.10891 15 8.21326 14.9567 8.2902 14.8798C8.36713 14.8029 8.41036 14.6985 8.41036 14.5897C8.41036 14.4809 8.36713 14.3766 8.2902 14.2996C8.21326 14.2227 8.10891 14.1795 8.0001 14.1795C6.77794 14.1795 5.58322 13.8171 4.56703 13.1381C3.55084 12.4591 2.75882 11.494 2.29112 10.3648C1.82342 9.23571 1.70104 7.99325 1.93948 6.79457C2.17791 5.59589 2.76643 4.49483 3.63063 3.63063C4.49483 2.76643 5.59589 2.17791 6.79457 1.93948C7.99325 1.70104 9.23571 1.82342 10.3648 2.29112C11.494 2.75882 12.4591 3.55084 13.1381 4.56703C13.8171 5.58322 14.1795 6.77794 14.1795 8.0001V9.64355C14.1795 9.97174 14.0491 10.2865 13.817 10.5186C13.585 10.7506 13.2702 10.881 12.942 10.881C12.6138 10.881 12.2991 10.7506 12.067 10.5186C11.8349 10.2865 11.7046 9.97174 11.7046 9.64355V8.0001C11.7053 7.11928 11.3925 6.26695 10.8222 5.59573C10.2518 4.92451 9.46112 4.47825 8.59172 4.33685C7.72233 4.19545 6.83098 4.36814 6.07731 4.82402C5.32363 5.27989 4.75685 5.98917 4.47844 6.82483C4.20004 7.6605 4.2282 8.56798 4.55789 9.38478C4.88757 10.2016 5.49725 10.8743 6.27774 11.2826C7.05824 11.6909 7.95858 11.808 8.81753 11.6129C9.67649 11.4179 10.438 10.9234 10.9656 10.2181C11.1029 10.6951 11.4081 11.1063 11.8247 11.3759C12.2413 11.6456 12.7414 11.7556 13.2327 11.6856C13.7241 11.6157 14.1735 11.3704 14.4983 10.9951C14.8231 10.6199 15.0012 10.1398 15 9.64355V8.0001C15.0026 7.08048 14.8227 6.16947 14.4708 5.31983C14.1189 4.47019 13.602 3.69879 12.9499 3.05028ZM8.0001 10.8853C7.42947 10.8853 6.87165 10.7161 6.39719 10.399C5.92273 10.082 5.55293 9.6314 5.33456 9.10421C5.11619 8.57701 5.05905 7.9969 5.17038 7.43724C5.2817 6.87757 5.55649 6.36348 5.95998 5.95998C6.36348 5.55649 6.87757 5.2817 7.43724 5.17038C7.9969 5.05905 8.57701 5.11619 9.10421 5.33456C9.6314 5.55293 10.082 5.92273 10.399 6.39719C10.7161 6.87165 10.8853 7.42947 10.8853 8.0001C10.8846 8.7651 10.5804 9.49858 10.0395 10.0395C9.49858 10.5804 8.7651 10.8846 8.0001 10.8853Z" fill="#006197" stroke="#006197" stroke-width="0.3"/>
</svg>
