
<svg width="20" height="16" viewBox="0 0 20 16" fill="none" xmlns="http://www.w3.org/2000/svg">
<path d="M12.126 3.1H12.2035L12.2228 3.02493C12.6558 1.3428 14.1829 0.1 16 0.1C18.1539 0.1 19.9 1.84609 19.9 4C19.9 6.15387 18.1539 7.9 16 7.9C14.1829 7.9 12.6558 6.65717 12.2228 4.97507L12.2035 4.9H12.126H1C0.502948 4.9 0.1 4.49706 0.1 4C0.1 3.50295 0.502948 3.1 1 3.1H12.126ZM7.77714 11.0249L7.79646 11.1H7.87398H19C19.4971 11.1 19.9 11.5029 19.9 12C19.9 12.4971 19.4971 12.9 19 12.9H7.87398H7.79646L7.77714 12.9751C7.34419 14.6572 5.81711 15.9 4 15.9C1.84609 15.9 0.1 14.1539 0.1 12C0.1 9.84613 1.84609 8.1 4 8.1C5.81711 8.1 7.34419 9.34283 7.77714 11.0249ZM13.9 4C13.9 5.1598 14.8402 6.1 16 6.1C17.1598 6.1 18.1 5.1598 18.1 4C18.1 2.8402 17.1598 1.9 16 1.9C14.8402 1.9 13.9 2.8402 13.9 4ZM6.1 12C6.1 10.8402 5.1598 9.9 4 9.9C2.8402 9.9 1.9 10.8402 1.9 12C1.9 13.1598 2.8402 14.1 4 14.1C5.1598 14.1 6.1 13.1598 6.1 12Z" fill="white" stroke="#3D86AF" stroke-width="0.2"/>
</svg>
