
<svg width="24" height="24" viewBox="0 0 24 24" fill="none" xmlns="http://www.w3.org/2000/svg">
<g clip-path="url(#clip0_2365_989)">
<path d="M18.5876 4.85099L18.3916 16.1114C18.3918 17.3764 17.9039 18.6096 17.0295 19.5545C16.155 20.4994 14.9615 21.0832 13.6971 21.1844C13.0604 21.2146 12.4286 21.1167 11.8391 20.8966C11.2497 20.6765 10.7146 20.3386 10.2656 19.903C9.8166 19.4674 9.46287 18.9429 9.22538 18.3608C8.9879 17.7786 8.87151 17.1506 8.8831 16.5139L9.04945 6.92279C9.07336 6.17739 9.38944 5.46115 9.92939 4.92884C10.4693 4.39654 11.1898 4.0909 11.9351 4.07798C12.6804 4.06505 13.3907 4.34587 13.9125 4.85977C14.4343 5.37366 14.7257 6.07936 14.7237 6.82438L14.5574 16.4155C14.547 16.6568 14.4444 16.8881 14.2708 17.0617C14.0973 17.2352 13.866 17.3378 13.6247 17.3482C13.382 17.3509 13.1514 17.2579 12.9828 17.0892C12.8141 16.9206 12.7211 16.69 12.7238 16.4473L12.8568 8.77864C12.8607 8.51305 12.7588 8.26048 12.5738 8.07647C12.3887 7.89246 12.1355 7.79209 11.8699 7.79745C11.6043 7.8028 11.348 7.91344 11.1575 8.10502C10.9669 8.2966 10.8577 8.55343 10.8538 8.81901L10.7195 16.4863C10.7072 17.259 11.0019 17.9943 11.5388 18.5312C12.0756 19.0681 12.811 19.3627 13.5836 19.3505C14.3512 19.3194 15.0875 18.994 15.6396 18.4419C16.1917 17.8898 16.5171 17.1535 16.5482 16.3859L16.7145 6.79478C16.7319 6.15595 16.6224 5.52441 16.3925 4.93669C16.1626 4.34897 15.8168 3.81674 15.3751 3.37078C14.9334 2.92481 14.4046 2.57397 13.8192 2.33853C13.2338 2.1031 12.6035 1.98775 11.9648 1.99915C11.326 2.01056 10.6914 2.14849 10.0978 2.40498C9.50415 2.66146 8.96319 3.0314 8.50621 3.49341C8.04922 3.95542 7.68529 4.50033 7.43545 5.09661C7.18561 5.69289 7.05482 6.32872 7.05065 6.96732L6.88431 16.5585C6.86841 17.4621 7.03419 18.3534 7.37181 19.1795C7.70942 20.0056 8.21199 20.7497 8.84969 21.3676C9.4874 21.9855 10.2472 22.4646 11.0841 22.7765C11.921 23.0885 12.8179 23.2268 13.7216 23.1834C15.4079 23.0925 17.0175 22.3593 18.2192 21.1349C19.5739 19.7794 20.353 17.9598 20.3853 16.0761L20.5806 4.81502C20.5852 4.68256 20.5634 4.55144 20.5165 4.42929C20.4695 4.30714 20.3984 4.19641 20.3072 4.10356C20.216 4.01072 20.1066 3.93762 19.9854 3.88853C19.8641 3.83943 19.7335 3.81533 19.601 3.81763C19.4686 3.81993 19.337 3.84858 19.214 3.9019C19.091 3.95523 18.979 4.03218 18.8845 4.12824C18.7901 4.2243 18.715 4.33756 18.6638 4.46142C18.6126 4.58527 18.5862 4.71723 18.5862 4.84961L18.5876 4.85099Z" fill="#4F4F4F"/>
</g>
<defs>
<clipPath id="clip0_2365_989">
<rect width="24" height="24" fill="white"/>
</clipPath>
</defs>
</svg>
