<svg width="140" height="100" viewBox="0 0 140 100" fill="none" xmlns="http://www.w3.org/2000/svg">
<path fill-rule="evenodd" clip-rule="evenodd" d="M131.724 97.9064C138.685 94.6855 141.655 86.5385 138.345 79.7651L103.196 7.76847C99.886 0.995106 91.5127 -1.89423 84.5511 1.32667C77.5896 4.54757 74.62 12.6946 77.9304 19.4679L113.079 91.4645C116.389 98.2379 124.811 101.127 131.724 97.9064Z" fill="#4DC9F5"/>
<path fill-rule="evenodd" clip-rule="evenodd" d="M90.5393 97.9059C97.5008 94.685 100.47 86.538 97.16 79.7647L62.0117 7.76806C59.6263 2.84197 54.5633 0 49.3057 0C44.048 0 38.9851 2.84197 36.5997 7.76806L1.35399 79.812C-1.95638 86.5854 1.01321 94.7324 7.97473 97.9533C14.9362 101.174 23.3095 98.2849 26.6199 91.5115L49.257 45.1874L71.8941 91.5115C75.2045 98.2375 83.5778 101.127 90.5393 97.9059Z" fill="#006197"/>
</svg>
