
<svg width="23" height="7" viewBox="0 0 23 7" fill="none" xmlns="http://www.w3.org/2000/svg">
<path d="M21.0438 1.21822L21.202 1.12236C21.3429 1.02578 21.4374 0.882426 21.4656 0.722681C21.4938 0.562936 21.4534 0.399349 21.353 0.266583C21.2526 0.133816 21.1001 0.0423041 20.9278 0.0114343C20.7555 -0.0194355 20.5769 0.0127629 20.4299 0.101209C9.87864 6.90247 2.19712 0.434646 1.87435 0.157894C1.74316 0.0504052 1.57174 -0.00577582 1.39639 0.00124595C1.22105 0.00826773 1.05556 0.0779407 0.934974 0.195512C0.814388 0.313083 0.748177 0.469318 0.750366 0.631119C0.752555 0.79292 0.822973 0.947577 0.946704 1.06234C0.96117 1.07484 1.20167 1.27824 1.64017 1.5775L0.284877 3.6323C0.192149 3.77342 0.163871 3.94268 0.206238 4.10298C0.248606 4.26329 0.358164 4.40158 0.510911 4.48756C0.617091 4.54659 0.738633 4.57799 0.862619 4.57842C0.978404 4.57822 1.09221 4.55069 1.19318 4.49845C1.29416 4.44622 1.37894 4.37101 1.43946 4.28L2.7613 2.27188C3.6565 2.77176 4.60212 3.19051 5.58491 3.52227L4.93393 5.52955C4.90811 5.6077 4.89933 5.6898 4.9081 5.7711C4.91688 5.8524 4.94304 5.93129 4.98507 6.00321C5.02711 6.07514 5.08418 6.13868 5.15299 6.19015C5.22181 6.24163 5.301 6.28002 5.386 6.30312L5.58039 6.32979C5.72529 6.32918 5.86615 6.28567 5.98221 6.20568C6.09827 6.12569 6.18339 6.01345 6.22504 5.88549L6.86969 3.90572C8.0042 4.18938 9.17039 4.35161 10.3452 4.3892V6.37815C10.3452 6.54307 10.4162 6.70124 10.5427 6.81786C10.6692 6.93448 10.8408 7 11.0197 7C11.1985 7 11.3701 6.93448 11.4966 6.81786C11.6231 6.70124 11.6941 6.54307 11.6941 6.37815V4.37753C12.8746 4.31439 14.0436 4.12986 15.1796 3.82736L16.0096 5.84632C16.0585 5.96443 16.1453 6.06603 16.2583 6.13764C16.3713 6.20926 16.5053 6.24748 16.6425 6.24727L16.8812 6.20809C16.9641 6.17922 17.04 6.13556 17.1046 6.07962C17.1691 6.02369 17.2211 5.95657 17.2576 5.8821C17.294 5.80762 17.3142 5.72726 17.3169 5.6456C17.3197 5.56394 17.3049 5.48259 17.2736 5.40618L16.4653 3.43891C17.6612 3.02675 18.8117 2.51007 19.901 1.89593L20.9941 3.24135C21.0572 3.31899 21.1391 3.38201 21.2333 3.42542C21.3274 3.46882 21.4313 3.49142 21.5365 3.49142C21.6825 3.49204 21.8247 3.44807 21.9407 3.36638C22.0118 3.31749 22.0717 3.25616 22.117 3.1859C22.1623 3.11564 22.1922 3.03784 22.2049 2.95693C22.2175 2.87602 22.2128 2.7936 22.1909 2.71439C22.169 2.63517 22.1304 2.56072 22.0772 2.49528L21.0438 1.21822Z" fill="#ADADAD"/>
</svg>