<svg width="175" height="145" viewBox="0 0 175 145" fill="none" xmlns="http://www.w3.org/2000/svg">
<path d="M24.6971 144.999H23.7234V139.493C23.7234 139.079 23.7234 138.546 23.7843 137.894C23.6626 138.25 23.6017 138.546 23.5409 138.664L20.6808 144.94H20.194L17.3339 138.723C17.2731 138.546 17.1514 138.25 17.0905 137.894C17.1514 138.25 17.1514 138.783 17.1514 139.493V144.94H16.1777V136.77H17.4556L20.0114 142.453C20.194 142.868 20.3157 143.223 20.3766 143.46H20.4374C20.62 142.986 20.7417 142.69 20.8634 142.453L23.48 136.77H24.6971V144.999Z" fill="white"/>
<path d="M46.9674 141.861L45.6286 138.368C45.5678 138.249 45.5678 138.071 45.5069 137.835C45.4461 138.071 45.4461 138.249 45.3852 138.368L44.1073 141.861H46.9674ZM49.2798 144.999H48.1844L47.2716 142.69H43.6814L42.8294 144.999H41.7949L45.0201 136.828H46.0546L49.2798 144.999Z" fill="white"/>
<path d="M67.3506 137.716V140.677H68.6893C68.9328 140.677 69.1762 140.617 69.3587 140.558C69.5413 140.499 69.7238 140.381 69.9064 140.262C70.089 140.144 70.2107 139.966 70.2715 139.789C70.3324 139.611 70.3932 139.374 70.3932 139.137C70.3932 138.723 70.2715 138.368 69.9673 138.131C69.663 137.894 69.237 137.775 68.6893 137.775H67.3506V137.716ZM72.4014 144.999H71.2451L69.8456 142.69C69.7238 142.453 69.6021 142.275 69.4804 142.157C69.3587 141.979 69.237 141.861 69.1153 141.802C68.9936 141.683 68.8719 141.624 68.6893 141.565C68.5676 141.506 68.3851 141.506 68.2025 141.506H67.3506V144.999H66.377V136.828H68.8719C69.237 136.828 69.6021 136.887 69.9064 136.947C70.2107 137.065 70.5149 137.183 70.6975 137.361C70.9409 137.539 71.1234 137.775 71.2451 138.071C71.3669 138.368 71.4277 138.664 71.4277 139.019C71.4277 139.315 71.3669 139.552 71.306 139.789C71.2452 140.025 71.0626 140.262 70.9409 140.44C70.7583 140.617 70.5758 140.795 70.3932 140.913C70.1498 141.032 69.9064 141.15 69.6021 141.209C69.7238 141.269 69.8455 141.328 69.9673 141.446C70.089 141.506 70.1498 141.624 70.2715 141.742C70.3324 141.861 70.4541 141.979 70.5758 142.098C70.6366 142.216 70.7583 142.394 70.88 142.571L72.4014 144.999Z" fill="white"/>
<path d="M94.3731 137.716H91.939V144.999H90.9653V137.716H88.5312V136.828H94.3731V137.716Z" fill="white"/>
<path d="M113.357 136.828V137.657H112.505V144.17H113.357V144.999H110.74V144.17H111.531V137.657H110.74V136.828H113.357Z" fill="white"/>
<path d="M134.776 141.861L133.438 138.368C133.377 138.249 133.377 138.071 133.316 137.835C133.255 138.071 133.255 138.249 133.194 138.368L131.916 141.861H134.776ZM137.089 144.999H135.993L135.081 142.69H131.49L130.638 144.999H129.543L132.768 136.828H133.803L137.089 144.999Z" fill="white"/>
<path d="M158.571 144.999H154.189V136.828H155.163V144.111H158.571V144.999Z" fill="white"/>
<path fill-rule="evenodd" clip-rule="evenodd" d="M164.655 122.381C173.357 118.355 177.069 108.171 172.931 99.7046L128.996 9.70877C124.858 1.24205 114.391 -2.36962 105.689 1.65651C96.9872 5.68264 93.2752 15.8664 97.4132 24.3331L141.349 114.329C145.487 122.796 156.014 126.407 164.655 122.381Z" fill="white"/>
<path fill-rule="evenodd" clip-rule="evenodd" d="M113.174 122.383C121.876 118.356 125.588 108.173 121.45 99.7059L77.5146 9.71008C74.5329 3.55247 68.2042 0 61.6322 0C55.0601 0 48.7314 3.55247 45.7497 9.71008L1.69249 99.7651C-2.44548 108.232 1.26652 118.416 9.96842 122.442C18.6703 126.468 29.1369 122.856 33.2749 114.389L61.5713 56.4842L89.8677 114.389C94.0057 122.797 104.472 126.409 113.174 122.383Z" fill="white"/>
</svg>
